<svg width="1440" height="756" viewBox="0 0 1440 756" fill="none" xmlns="http://www.w3.org/2000/svg">
<rect width="1440" height="756" fill="#0077FF"/>
<rect width="57.0001" height="57.0001" transform="matrix(-4.37114e-08 1 1 4.37114e-08 1214.5 114.001)" fill="white"/>
<rect x="1385.5" y="57.001" width="57.0001" height="57.0001" transform="rotate(-90 1385.5 57.001)" fill="white"/>
<rect width="57.0001" height="57.0001" transform="matrix(-4.37114e-08 1 1 4.37114e-08 1271.5 57.001)" fill="white"/>
<rect width="57.0001" height="57.0001" transform="matrix(-4.37114e-08 1 1 4.37114e-08 1328.5 0.000976562)" fill="white"/>
<rect x="42.001" y="57.001" width="57.0001" height="57.0001" transform="rotate(-90 42.001 57.001)" fill="white"/>
<rect x="99.001" y="114.001" width="57.0001" height="57.0001" transform="rotate(-90 99.001 114.001)" fill="white"/>
<rect width="57.0001" height="57.0001" transform="matrix(-4.37114e-08 1 1 4.37114e-08 -14.999 0.000976562)" fill="white"/>
<rect x="156.001" y="171.001" width="57.0001" height="57.0001" transform="rotate(-90 156.001 171.001)" fill="white"/>
<rect width="57.0001" height="57.0001" transform="matrix(4.37114e-08 1 1 -4.37114e-08 42.5 698.999)" fill="white"/>
<rect width="57.0001" height="57.0001" transform="matrix(4.37114e-08 1 1 -4.37114e-08 99.5 641.999)" fill="white"/>
<rect x="-14.5" y="755.999" width="57.0001" height="57.0001" transform="rotate(-90 -14.5 755.999)" fill="white"/>
<rect width="57.0001" height="57.0001" transform="matrix(4.37114e-08 1 1 -4.37114e-08 156.5 584.999)" fill="white"/>
<rect x="1428" y="698.999" width="57.0001" height="57.0001" transform="rotate(90 1428 698.999)" fill="white"/>
<rect x="1371" y="641.999" width="57.0001" height="57.0001" transform="rotate(90 1371 641.999)" fill="white"/>
<rect width="57.0001" height="57.0001" transform="matrix(4.37114e-08 -1 -1 -4.37114e-08 1485 755.999)" fill="white"/>
<rect x="1314" y="584.999" width="57.0001" height="57.0001" transform="rotate(90 1314 584.999)" fill="white"/>
</svg>
